<svg viewBox="0 0 325 92" fill="none" xmlns="http://www.w3.org/2000/svg">
<g clip-path="url(#clip0_2_2)">
<g clip-path="url(#clip1_2_2)">
<path d="M83.5 8L129.832 86.75H37.1676L83.5 8Z" fill="white"/>
<path d="M67.9 34.4L102.541 93.65H33.259L67.9 34.4Z" fill="black"/>
<path d="M44 8L88 87H0L44 8Z" fill="white"/>
<path d="M37.87 19L75.87 86.5H-0.130005L37.87 19Z" fill="black"/>
<path d="M32.6 28.2L65.509 86.7H-0.30896L32.6 28.2Z" fill="white"/>
</g>
<path d="M155.277 80V74.75L154.777 73.6V64.2C154.777 62.5333 154.26 61.2333 153.227 60.3C152.227 59.3667 150.677 58.9 148.577 58.9C147.143 58.9 145.727 59.1333 144.327 59.6C142.96 60.0333 141.793 60.6333 140.827 61.4L138.027 55.95C139.493 54.9167 141.26 54.1167 143.327 53.55C145.393 52.9833 147.493 52.7 149.627 52.7C153.727 52.7 156.91 53.6667 159.177 55.6C161.443 57.5333 162.577 60.55 162.577 64.65V80H155.277ZM147.077 80.4C144.977 80.4 143.177 80.05 141.677 79.35C140.177 78.6167 139.027 77.6333 138.227 76.4C137.427 75.1667 137.027 73.7833 137.027 72.25C137.027 70.65 137.41 69.25 138.177 68.05C138.977 66.85 140.227 65.9167 141.927 65.25C143.627 64.55 145.843 64.2 148.577 64.2H155.727V68.75H149.427C147.593 68.75 146.327 69.05 145.627 69.65C144.96 70.25 144.627 71 144.627 71.9C144.627 72.9 145.01 73.7 145.777 74.3C146.577 74.8667 147.66 75.15 149.027 75.15C150.327 75.15 151.493 74.85 152.527 74.25C153.56 73.6167 154.31 72.7 154.777 71.5L155.977 75.1C155.41 76.8333 154.377 78.15 152.877 79.05C151.377 79.95 149.443 80.4 147.077 80.4ZM169.353 80V53.1H177.103V69.1L190.203 53.1H197.353V80H189.603V64L176.553 80H169.353ZM182.853 50.2C179.919 50.2 177.719 49.5667 176.253 48.3C174.786 47 174.036 45.05 174.003 42.45H179.103C179.136 43.5833 179.453 44.4833 180.053 45.15C180.653 45.8167 181.569 46.15 182.803 46.15C184.003 46.15 184.919 45.8167 185.553 45.15C186.219 44.4833 186.553 43.5833 186.553 42.45H191.753C191.753 45.05 191.003 47 189.503 48.3C188.003 49.5667 185.786 50.2 182.853 50.2ZM217.651 80.4C214.751 80.4 212.167 79.8167 209.901 78.65C207.634 77.45 205.851 75.8 204.551 73.7C203.284 71.6 202.651 69.2167 202.651 66.55C202.651 63.85 203.284 61.4667 204.551 59.4C205.851 57.3 207.634 55.6667 209.901 54.5C212.167 53.3 214.751 52.7 217.651 52.7C220.484 52.7 222.951 53.3 225.051 54.5C227.151 55.6667 228.701 57.35 229.701 59.55L223.651 62.8C222.951 61.5333 222.067 60.6 221.001 60C219.967 59.4 218.834 59.1 217.601 59.1C216.267 59.1 215.067 59.4 214.001 60C212.934 60.6 212.084 61.45 211.451 62.55C210.851 63.65 210.551 64.9833 210.551 66.55C210.551 68.1167 210.851 69.45 211.451 70.55C212.084 71.65 212.934 72.5 214.001 73.1C215.067 73.7 216.267 74 217.601 74C218.834 74 219.967 73.7167 221.001 73.15C222.067 72.55 222.951 71.6 223.651 70.3L229.701 73.6C228.701 75.7667 227.151 77.45 225.051 78.65C222.951 79.8167 220.484 80.4 217.651 80.4ZM240.142 80V57.7L241.892 59.5H231.042V53.1H256.992V59.5H246.142L247.892 57.7V80H240.142ZM273.176 80.4C270.11 80.4 267.41 79.8 265.076 78.6C262.776 77.4 260.993 75.7667 259.726 73.7C258.46 71.6 257.826 69.2167 257.826 66.55C257.826 63.85 258.443 61.4667 259.676 59.4C260.943 57.3 262.66 55.6667 264.826 54.5C266.993 53.3 269.443 52.7 272.176 52.7C274.81 52.7 277.176 53.2667 279.276 54.4C281.41 55.5 283.093 57.1 284.326 59.2C285.56 61.2667 286.176 63.75 286.176 66.65C286.176 66.95 286.16 67.3 286.126 67.7C286.093 68.0667 286.06 68.4167 286.026 68.75H264.176V64.2H281.926L278.926 65.55C278.926 64.15 278.643 62.9333 278.076 61.9C277.51 60.8667 276.726 60.0667 275.726 59.5C274.726 58.9 273.56 58.6 272.226 58.6C270.893 58.6 269.71 58.9 268.676 59.5C267.676 60.0667 266.893 60.8833 266.326 61.95C265.76 62.9833 265.476 64.2167 265.476 65.65V66.85C265.476 68.3167 265.793 69.6167 266.426 70.75C267.093 71.85 268.01 72.7 269.176 73.3C270.376 73.8667 271.776 74.15 273.376 74.15C274.81 74.15 276.06 73.9333 277.126 73.5C278.226 73.0667 279.226 72.4167 280.126 71.55L284.276 76.05C283.043 77.45 281.493 78.5333 279.626 79.3C277.76 80.0333 275.61 80.4 273.176 80.4ZM308.005 80.4C305.739 80.4 303.755 79.9 302.055 78.9C300.355 77.9 299.022 76.3833 298.055 74.35C297.122 72.2833 296.655 69.6833 296.655 66.55C296.655 63.3833 297.105 60.7833 298.005 58.75C298.905 56.7167 300.205 55.2 301.905 54.2C303.605 53.2 305.639 52.7 308.005 52.7C310.539 52.7 312.805 53.2833 314.805 54.45C316.839 55.5833 318.439 57.1833 319.605 59.25C320.805 61.3167 321.405 63.75 321.405 66.55C321.405 69.3833 320.805 71.8333 319.605 73.9C318.439 75.9667 316.839 77.5667 314.805 78.7C312.805 79.8333 310.539 80.4 308.005 80.4ZM292.105 89.7V53.1H299.555V58.6L299.405 66.6L299.905 74.55V89.7H292.105ZM306.655 74C307.955 74 309.105 73.7 310.105 73.1C311.139 72.5 311.955 71.65 312.555 70.55C313.189 69.4167 313.505 68.0833 313.505 66.55C313.505 64.9833 313.189 63.65 312.555 62.55C311.955 61.45 311.139 60.6 310.105 60C309.105 59.4 307.955 59.1 306.655 59.1C305.355 59.1 304.189 59.4 303.155 60C302.122 60.6 301.305 61.45 300.705 62.55C300.105 63.65 299.805 64.9833 299.805 66.55C299.805 68.0833 300.105 69.4167 300.705 70.55C301.305 71.65 302.122 72.5 303.155 73.1C304.189 73.7 305.355 74 306.655 74Z" fill="white"/>
</g>
<defs>
<clipPath id="clip0_2_2">
<rect width="325" height="92" fill="white"/>
</clipPath>
<clipPath id="clip1_2_2">
<rect width="130" height="78" fill="white" transform="translate(0 8)"/>
</clipPath>
</defs>
</svg>
